<?xml version="1.0"?>
<svg xmlns="http://www.w3.org/2000/svg" xmlns:xlink="http://www.w3.org/1999/xlink" xmlns:svgjs="http://svgjs.com/svgjs" version="1.1" width="512" height="512" x="0" y="0" viewBox="0 0 512 512" style="enable-background:new 0 0 512 512" xml:space="preserve" class=""><g transform="matrix(0.6000000000000001,0,0,0.6000000000000001,102.39999948702754,102.39934984557328)"><g xmlns="http://www.w3.org/2000/svg" id="_02_User" data-name="02 User"><path d="m25 512a25 25 0 0 1 -17.68-42.68l462-462a25 25 0 0 1 35.36 35.36l-462 462a24.93 24.93 0 0 1 -17.68 7.32z" fill="#000000" data-original="#000000" style="" class=""/><path d="m487 512a24.93 24.93 0 0 1 -17.68-7.32l-462-462a25 25 0 0 1 35.36-35.36l462 462a25 25 0 0 1 -17.68 42.68z" fill="#000000" data-original="#000000" style="" class=""/></g></g></svg>
